<svg preserveAspectRatio="none" overflow="visible" style="display: block;" width="169.826" height="186" viewBox="0 0 169.826 186" fill="none" xmlns="http://www.w3.org/2000/svg">
<g id="Mascot/wait">
<path id="Vector" d="M34.7739 79.2522C13.7478 84.1043 8.89565 122.922 15.3652 143.948C20.2174 158.504 41.2435 156.887 46.0957 145.565L44.4783 82.487L34.7739 79.2522Z" fill="#63C7C5" stroke="#1E2446" stroke-width="1.77913" stroke-linecap="round" stroke-linejoin="round"/>
<path id="Vector_2" d="M28.3043 100.278C21.8348 103.513 21.8348 126.157 28.3043 131.009C33.1565 134.243 38.0087 129.391 38.0087 121.304L36.3913 103.513L28.3043 100.278Z" fill="#3FA9A7" stroke="#1E2446" stroke-width="1.29391" stroke-linecap="round" stroke-linejoin="round"/>
<path id="Vector_3" d="M52.5652 160.122H75.2087C76.4956 160.122 77.7297 160.633 78.6397 161.543C79.5497 162.453 80.0609 163.687 80.0609 164.974V168.209C80.0609 169.496 79.5497 170.73 78.6397 171.64C77.7297 172.55 76.4956 173.061 75.2087 173.061H52.5652C51.2783 173.061 50.0442 172.55 49.1342 171.64C48.2243 170.73 47.713 169.496 47.713 168.209V164.974C47.713 163.687 48.2243 162.453 49.1342 161.543C50.0442 160.633 51.2783 160.122 52.5652 160.122Z" fill="#63C7C5" stroke="#1E2446" stroke-width="1.77913" stroke-linecap="round" stroke-linejoin="round"/>
<path id="Vector_4" d="M94.6174 160.122H117.261C118.548 160.122 119.782 160.633 120.692 161.543C121.602 162.453 122.113 163.687 122.113 164.974V168.209C122.113 169.496 121.602 170.73 120.692 171.64C119.782 172.55 118.548 173.061 117.261 173.061H94.6174C93.3305 173.061 92.0964 172.55 91.1864 171.64C90.2764 170.73 89.7652 169.496 89.7652 168.209V164.974C89.7652 163.687 90.2764 162.453 91.1864 161.543C92.0964 160.633 93.3305 160.122 94.6174 160.122Z" fill="#63C7C5" stroke="#1E2446" stroke-width="1.77913" stroke-linecap="round" stroke-linejoin="round"/>
<path id="Vector_5" d="M84.913 38.8174C126.965 38.8174 147.991 72.7826 147.991 109.983C147.991 145.565 122.113 164.974 84.913 164.974C47.713 164.974 21.8348 145.565 21.8348 109.983C21.8348 72.7826 42.8609 38.8174 84.913 38.8174Z" fill="white" stroke="#1E2446" stroke-width="1.77913" stroke-linecap="round" stroke-linejoin="round"/>
<path id="Vector_6" d="M85.7217 37.2C83.2957 19.4087 94.6174 8.08696 109.174 11.3217C112.409 25.8783 101.087 37.2 85.7217 37.2Z" fill="#63C7C5" stroke="#1E2446" stroke-width="1.77913" stroke-linecap="round" stroke-linejoin="round"/>
<path id="Vector_7" d="M84.1044 37.2C80.0609 27.4957 70.3565 24.2609 63.887 30.7304C68.7391 37.2 76.8261 38.8174 84.1044 37.2Z" fill="#63C7C5" stroke="#1E2446" stroke-width="1.77913" stroke-linecap="round" stroke-linejoin="round"/>
<path id="Vector_8" d="M57.4174 112.409C61.4371 112.409 64.6957 110.598 64.6957 108.365C64.6957 106.132 61.4371 104.322 57.4174 104.322C53.3977 104.322 50.1391 106.132 50.1391 108.365C50.1391 110.598 53.3977 112.409 57.4174 112.409Z" fill="#D3EEF2"/>
<path id="Vector_9" d="M112.409 112.409C116.428 112.409 119.687 110.598 119.687 108.365C119.687 106.132 116.428 104.322 112.409 104.322C108.389 104.322 105.13 106.132 105.13 108.365C105.13 110.598 108.389 112.409 112.409 112.409Z" fill="#D3EEF2"/>
<path id="Vector_10" d="M68.7391 102.704C71.6422 102.704 73.9957 99.4458 73.9957 95.4261C73.9957 91.4064 71.6422 88.1478 68.7391 88.1478C65.836 88.1478 63.4826 91.4064 63.4826 95.4261C63.4826 99.4458 65.836 102.704 68.7391 102.704Z" fill="#2A2D52"/>
<path id="Vector_11" d="M101.087 102.704C103.99 102.704 106.343 99.4458 106.343 95.4261C106.343 91.4064 103.99 88.1478 101.087 88.1478C98.1839 88.1478 95.8304 91.4064 95.8304 95.4261C95.8304 99.4458 98.1839 102.704 101.087 102.704Z" fill="#2A2D52"/>
<g id="Vector_12">
<path d="M78.4435 114.026H91.3826Z" fill="black"/>
<path d="M78.4435 114.026H91.3826" stroke="#2A2D52" stroke-width="2.42609" stroke-linecap="round"/>
</g>
<path id="Vector_13" d="M19.7037 134.458C24.3761 135.977 29.8422 132.042 31.9124 125.671C33.9827 119.299 31.8732 112.903 27.2007 111.385C22.5282 109.867 17.0622 113.801 14.9919 120.173C12.9217 126.544 15.0312 132.94 19.7037 134.458Z" fill="white" stroke="#1E2446" stroke-width="1.77913"/>
<path id="Vector_14" d="M143.543 123.939C147.798 121.483 148.894 115.415 145.991 110.387C143.088 105.359 137.285 103.274 133.03 105.73C128.776 108.187 127.68 114.254 130.583 119.283C133.486 124.311 139.289 126.396 143.543 123.939Z" fill="white" stroke="#1E2446" stroke-width="1.77913"/>
<g id="Vector_15">
<path d="M130.2 93.8087H152.843ZM130.2 132.626H152.843Z" fill="black"/>
<path d="M130.2 93.8087H152.843M130.2 132.626H152.843" stroke="#1E2446" stroke-width="3.23478" stroke-linecap="round"/>
</g>
<path id="Vector_16" d="M132.626 95.4261H150.417C150.417 106.748 143.948 109.983 143.948 113.217C143.948 116.452 150.417 119.687 150.417 131.009H132.626C132.626 119.687 139.096 116.452 139.096 113.217C139.096 109.983 132.626 106.748 132.626 95.4261Z" fill="#F4F8FF" stroke="#1E2446" stroke-width="1.61739" stroke-linecap="round" stroke-linejoin="round"/>
<path id="Vector_17" d="M135.861 129.391C139.635 124 143.409 124 147.183 129.391H135.861Z" fill="#F7D35F"/>
<path id="Vector_18" d="M136.67 98.6609H146.374L141.522 105.13L136.67 98.6609Z" fill="#F7D35F"/>
</g>
</svg>
